<mxfile host="Electron" agent="Mozilla/5.0 (Windows NT 10.0; Win64; x64) AppleWebKit/537.36 (KHTML, like Gecko) draw.io/28.0.6 Chrome/138.0.7204.100 Electron/37.2.3 Safari/537.36" version="28.0.6">
  <diagram name="Page-1" id="2a216829-ef6e-dabb-86c1-c78162f3ba2b">
    <mxGraphModel dx="677" dy="1415" grid="1" gridSize="10" guides="1" tooltips="1" connect="1" arrows="1" fold="1" page="1" pageScale="1" pageWidth="850" pageHeight="1100" background="none" math="0" shadow="0">
      <root>
        <mxCell id="0" />
        <mxCell id="1" parent="0" />
        <mxCell id="mMB79SSLP8Va4VQIcZyh-2" value="" style="swimlane;html=1;startSize=20;fontStyle=0;collapsible=0;horizontal=0;swimlaneLine=0;fillColor=none;whiteSpace=wrap;" parent="1" vertex="1">
          <mxGeometry x="1980" y="170" width="1450" height="80" as="geometry" />
        </mxCell>
        <mxCell id="mMB79SSLP8Va4VQIcZyh-34" value="&lt;font style=&quot;font-size: 24px;&quot;&gt;Выставитель счёта&lt;/font&gt;" style="text;html=1;align=center;verticalAlign=middle;resizable=0;points=[];autosize=1;strokeColor=none;fillColor=none;" parent="mMB79SSLP8Va4VQIcZyh-2" vertex="1">
          <mxGeometry x="600" y="20" width="240" height="40" as="geometry" />
        </mxCell>
        <mxCell id="mMB79SSLP8Va4VQIcZyh-30" value="Компания" style="swimlane;html=1;childLayout=stackLayout;resizeParent=1;resizeParentMax=0;horizontal=0;startSize=20;horizontalStack=0;whiteSpace=wrap;" parent="1" vertex="1">
          <mxGeometry x="1980" y="340" width="1450" height="528" as="geometry" />
        </mxCell>
        <mxCell id="mMB79SSLP8Va4VQIcZyh-31" value="Ассистент" style="swimlane;html=1;startSize=20;horizontal=0;" parent="mMB79SSLP8Va4VQIcZyh-30" vertex="1">
          <mxGeometry x="20" width="1430" height="208" as="geometry" />
        </mxCell>
        <mxCell id="mMB79SSLP8Va4VQIcZyh-35" value="" style="points=[[0.145,0.145,0],[0.5,0,0],[0.855,0.145,0],[1,0.5,0],[0.855,0.855,0],[0.5,1,0],[0.145,0.855,0],[0,0.5,0]];shape=mxgraph.bpmn.event;html=1;verticalLabelPosition=bottom;labelBackgroundColor=#ffffff;verticalAlign=top;align=center;perimeter=ellipsePerimeter;outlineConnect=0;aspect=fixed;outline=standard;symbol=message;" parent="mMB79SSLP8Va4VQIcZyh-31" vertex="1">
          <mxGeometry x="60" y="70" width="50" height="50" as="geometry" />
        </mxCell>
        <mxCell id="mMB79SSLP8Va4VQIcZyh-36" value="Получен счёт-фактура" style="text;html=1;align=center;verticalAlign=middle;whiteSpace=wrap;rounded=0;" parent="mMB79SSLP8Va4VQIcZyh-31" vertex="1">
          <mxGeometry x="42.5" y="120" width="85" height="30" as="geometry" />
        </mxCell>
        <mxCell id="mMB79SSLP8Va4VQIcZyh-37" value="Отсканировать счёт-фактуру" style="points=[[0.25,0,0],[0.5,0,0],[0.75,0,0],[1,0.25,0],[1,0.5,0],[1,0.75,0],[0.75,1,0],[0.5,1,0],[0.25,1,0],[0,0.75,0],[0,0.5,0],[0,0.25,0]];shape=mxgraph.bpmn.task;whiteSpace=wrap;rectStyle=rounded;size=10;html=1;container=1;expand=0;collapsible=0;taskMarker=abstract;" parent="mMB79SSLP8Va4VQIcZyh-31" vertex="1">
          <mxGeometry x="160" y="55" width="120" height="80" as="geometry" />
        </mxCell>
        <mxCell id="mMB79SSLP8Va4VQIcZyh-38" style="edgeStyle=orthogonalEdgeStyle;rounded=0;orthogonalLoop=1;jettySize=auto;html=1;entryX=0;entryY=0.5;entryDx=0;entryDy=0;entryPerimeter=0;" parent="mMB79SSLP8Va4VQIcZyh-31" source="mMB79SSLP8Va4VQIcZyh-35" target="mMB79SSLP8Va4VQIcZyh-37" edge="1">
          <mxGeometry relative="1" as="geometry" />
        </mxCell>
        <mxCell id="mMB79SSLP8Va4VQIcZyh-39" value="Передать счёт-фактуру утверждающему" style="points=[[0.25,0,0],[0.5,0,0],[0.75,0,0],[1,0.25,0],[1,0.5,0],[1,0.75,0],[0.75,1,0],[0.5,1,0],[0.25,1,0],[0,0.75,0],[0,0.5,0],[0,0.25,0]];shape=mxgraph.bpmn.task;whiteSpace=wrap;rectStyle=rounded;size=10;html=1;container=1;expand=0;collapsible=0;taskMarker=abstract;" parent="mMB79SSLP8Va4VQIcZyh-31" vertex="1">
          <mxGeometry x="330" y="55" width="120" height="80" as="geometry" />
        </mxCell>
        <mxCell id="mMB79SSLP8Va4VQIcZyh-40" style="edgeStyle=orthogonalEdgeStyle;rounded=0;orthogonalLoop=1;jettySize=auto;html=1;entryX=0;entryY=0.5;entryDx=0;entryDy=0;entryPerimeter=0;" parent="mMB79SSLP8Va4VQIcZyh-31" source="mMB79SSLP8Va4VQIcZyh-37" target="mMB79SSLP8Va4VQIcZyh-39" edge="1">
          <mxGeometry relative="1" as="geometry" />
        </mxCell>
        <mxCell id="mMB79SSLP8Va4VQIcZyh-56" style="edgeStyle=orthogonalEdgeStyle;rounded=0;orthogonalLoop=1;jettySize=auto;html=1;entryX=0;entryY=0.5;entryDx=0;entryDy=0;entryPerimeter=0;exitX=1;exitY=0.5;exitDx=0;exitDy=0;exitPerimeter=0;" parent="mMB79SSLP8Va4VQIcZyh-31" target="mMB79SSLP8Va4VQIcZyh-58" edge="1">
          <mxGeometry relative="1" as="geometry">
            <mxPoint x="1010" y="138" as="sourcePoint" />
            <mxPoint x="1090" y="138" as="targetPoint" />
          </mxGeometry>
        </mxCell>
        <mxCell id="mMB79SSLP8Va4VQIcZyh-65" style="edgeStyle=orthogonalEdgeStyle;rounded=0;orthogonalLoop=1;jettySize=auto;html=1;entryX=0;entryY=0.5;entryDx=0;entryDy=0;entryPerimeter=0;" parent="mMB79SSLP8Va4VQIcZyh-31" source="mMB79SSLP8Va4VQIcZyh-58" target="mMB79SSLP8Va4VQIcZyh-63" edge="1">
          <mxGeometry relative="1" as="geometry">
            <mxPoint x="1200" y="138" as="targetPoint" />
          </mxGeometry>
        </mxCell>
        <mxCell id="0P3-xj6T6yvnwffC693Y-3" value="Нет" style="edgeLabel;html=1;align=center;verticalAlign=middle;resizable=0;points=[];" vertex="1" connectable="0" parent="mMB79SSLP8Va4VQIcZyh-65">
          <mxGeometry x="-0.2493" y="-2" relative="1" as="geometry">
            <mxPoint x="-47" y="-17" as="offset" />
          </mxGeometry>
        </mxCell>
        <mxCell id="0P3-xj6T6yvnwffC693Y-1" value="Уточнить ситуацию у выставляющей стороны" style="points=[[0.25,0,0],[0.5,0,0],[0.75,0,0],[1,0.25,0],[1,0.5,0],[1,0.75,0],[0.75,1,0],[0.5,1,0],[0.25,1,0],[0,0.75,0],[0,0.5,0],[0,0.25,0]];shape=mxgraph.bpmn.task;whiteSpace=wrap;rectStyle=rounded;size=10;html=1;container=1;expand=0;collapsible=0;taskMarker=abstract;" vertex="1" parent="mMB79SSLP8Va4VQIcZyh-31">
          <mxGeometry x="890" y="98" width="120" height="80" as="geometry" />
        </mxCell>
        <mxCell id="mMB79SSLP8Va4VQIcZyh-63" value="Отменить обработку счета-фактуры" style="points=[[0.145,0.145,0],[0.5,0,0],[0.855,0.145,0],[1,0.5,0],[0.855,0.855,0],[0.5,1,0],[0.145,0.855,0],[0,0.5,0]];shape=mxgraph.bpmn.event;html=1;verticalLabelPosition=bottom;labelBackgroundColor=#ffffff;verticalAlign=top;align=center;perimeter=ellipsePerimeter;outlineConnect=0;aspect=fixed;outline=end;symbol=terminate2;" parent="mMB79SSLP8Va4VQIcZyh-31" vertex="1">
          <mxGeometry x="1290" y="113" width="50" height="50" as="geometry" />
        </mxCell>
        <mxCell id="mMB79SSLP8Va4VQIcZyh-58" value="Уточнение успешно?" style="points=[[0.25,0.25,0],[0.5,0,0],[0.75,0.25,0],[1,0.5,0],[0.75,0.75,0],[0.5,1,0],[0.25,0.75,0],[0,0.5,0]];shape=mxgraph.bpmn.gateway2;html=1;verticalLabelPosition=bottom;labelBackgroundColor=#ffffff;verticalAlign=top;align=center;perimeter=rhombusPerimeter;outlineConnect=0;outline=none;symbol=none;gwType=exclusive;" parent="mMB79SSLP8Va4VQIcZyh-31" vertex="1">
          <mxGeometry x="1090" y="113" width="50" height="50" as="geometry" />
        </mxCell>
        <mxCell id="0P3-xj6T6yvnwffC693Y-6" value="Отправить исправленный счет-фактуру" style="points=[[0.25,0,0],[0.5,0,0],[0.75,0,0],[1,0.25,0],[1,0.5,0],[1,0.75,0],[0.75,1,0],[0.5,1,0],[0.25,1,0],[0,0.75,0],[0,0.5,0],[0,0.25,0]];shape=mxgraph.bpmn.task;whiteSpace=wrap;rectStyle=rounded;size=10;html=1;container=1;expand=0;collapsible=0;taskMarker=abstract;" vertex="1" parent="mMB79SSLP8Va4VQIcZyh-31">
          <mxGeometry x="760" y="10" width="120" height="80" as="geometry" />
        </mxCell>
        <mxCell id="0P3-xj6T6yvnwffC693Y-11" style="edgeStyle=orthogonalEdgeStyle;rounded=0;orthogonalLoop=1;jettySize=auto;html=1;exitX=0.5;exitY=0;exitDx=0;exitDy=0;exitPerimeter=0;entryX=1;entryY=0.5;entryDx=0;entryDy=0;entryPerimeter=0;" edge="1" parent="mMB79SSLP8Va4VQIcZyh-31" source="mMB79SSLP8Va4VQIcZyh-58" target="0P3-xj6T6yvnwffC693Y-6">
          <mxGeometry relative="1" as="geometry" />
        </mxCell>
        <mxCell id="0P3-xj6T6yvnwffC693Y-12" value="Да" style="edgeLabel;html=1;align=center;verticalAlign=middle;resizable=0;points=[];" vertex="1" connectable="0" parent="0P3-xj6T6yvnwffC693Y-11">
          <mxGeometry x="-0.3442" relative="1" as="geometry">
            <mxPoint x="13" y="-10" as="offset" />
          </mxGeometry>
        </mxCell>
        <mxCell id="mMB79SSLP8Va4VQIcZyh-32" value="Утверждающий" style="swimlane;html=1;startSize=20;horizontal=0;" parent="mMB79SSLP8Va4VQIcZyh-30" vertex="1">
          <mxGeometry x="20" y="208" width="1430" height="170" as="geometry" />
        </mxCell>
        <mxCell id="mMB79SSLP8Va4VQIcZyh-42" value="Проверить счёт-фактуру" style="points=[[0.25,0,0],[0.5,0,0],[0.75,0,0],[1,0.25,0],[1,0.5,0],[1,0.75,0],[0.75,1,0],[0.5,1,0],[0.25,1,0],[0,0.75,0],[0,0.5,0],[0,0.25,0]];shape=mxgraph.bpmn.task;whiteSpace=wrap;rectStyle=rounded;size=10;html=1;container=1;expand=0;collapsible=0;taskMarker=abstract;" parent="mMB79SSLP8Va4VQIcZyh-32" vertex="1">
          <mxGeometry x="580" y="40" width="120" height="80" as="geometry" />
        </mxCell>
        <mxCell id="mMB79SSLP8Va4VQIcZyh-44" value="Утвержден счет-фактура?" style="points=[[0.25,0.25,0],[0.5,0,0],[0.75,0.25,0],[1,0.5,0],[0.75,0.75,0],[0.5,1,0],[0.25,0.75,0],[0,0.5,0]];shape=mxgraph.bpmn.gateway2;html=1;verticalLabelPosition=bottom;labelBackgroundColor=#ffffff;verticalAlign=top;align=center;perimeter=rhombusPerimeter;outlineConnect=0;outline=none;symbol=none;gwType=exclusive;" parent="mMB79SSLP8Va4VQIcZyh-32" vertex="1">
          <mxGeometry x="760" y="55" width="50" height="50" as="geometry" />
        </mxCell>
        <mxCell id="mMB79SSLP8Va4VQIcZyh-50" style="edgeStyle=orthogonalEdgeStyle;rounded=0;orthogonalLoop=1;jettySize=auto;html=1;entryX=0;entryY=0.5;entryDx=0;entryDy=0;entryPerimeter=0;" parent="mMB79SSLP8Va4VQIcZyh-32" source="mMB79SSLP8Va4VQIcZyh-42" target="mMB79SSLP8Va4VQIcZyh-44" edge="1">
          <mxGeometry relative="1" as="geometry" />
        </mxCell>
        <mxCell id="mMB79SSLP8Va4VQIcZyh-33" value="Менеджер" style="swimlane;html=1;startSize=20;horizontal=0;" parent="mMB79SSLP8Va4VQIcZyh-30" vertex="1">
          <mxGeometry x="20" y="378" width="1430" height="150" as="geometry" />
        </mxCell>
        <mxCell id="mMB79SSLP8Va4VQIcZyh-47" value="Оплатить счёт-фактуру" style="points=[[0.25,0,0],[0.5,0,0],[0.75,0,0],[1,0.25,0],[1,0.5,0],[1,0.75,0],[0.75,1,0],[0.5,1,0],[0.25,1,0],[0,0.75,0],[0,0.5,0],[0,0.25,0]];shape=mxgraph.bpmn.task;whiteSpace=wrap;rectStyle=rounded;size=10;html=1;container=1;expand=0;collapsible=0;taskMarker=abstract;" parent="mMB79SSLP8Va4VQIcZyh-33" vertex="1">
          <mxGeometry x="725" y="40" width="120" height="80" as="geometry" />
        </mxCell>
        <mxCell id="mMB79SSLP8Va4VQIcZyh-48" value="" style="points=[[0.145,0.145,0],[0.5,0,0],[0.855,0.145,0],[1,0.5,0],[0.855,0.855,0],[0.5,1,0],[0.145,0.855,0],[0,0.5,0]];shape=mxgraph.bpmn.event;html=1;verticalLabelPosition=bottom;labelBackgroundColor=#ffffff;verticalAlign=top;align=center;perimeter=ellipsePerimeter;outlineConnect=0;aspect=fixed;outline=end;symbol=terminate2;" parent="mMB79SSLP8Va4VQIcZyh-33" vertex="1">
          <mxGeometry x="920" y="55" width="50" height="50" as="geometry" />
        </mxCell>
        <mxCell id="mMB79SSLP8Va4VQIcZyh-49" style="edgeStyle=orthogonalEdgeStyle;rounded=0;orthogonalLoop=1;jettySize=auto;html=1;entryX=0;entryY=0.5;entryDx=0;entryDy=0;entryPerimeter=0;" parent="mMB79SSLP8Va4VQIcZyh-33" source="mMB79SSLP8Va4VQIcZyh-47" target="mMB79SSLP8Va4VQIcZyh-48" edge="1">
          <mxGeometry relative="1" as="geometry" />
        </mxCell>
        <mxCell id="mMB79SSLP8Va4VQIcZyh-43" style="edgeStyle=orthogonalEdgeStyle;rounded=0;orthogonalLoop=1;jettySize=auto;html=1;entryX=0;entryY=0.5;entryDx=0;entryDy=0;entryPerimeter=0;" parent="mMB79SSLP8Va4VQIcZyh-30" source="mMB79SSLP8Va4VQIcZyh-39" target="mMB79SSLP8Va4VQIcZyh-42" edge="1">
          <mxGeometry relative="1" as="geometry" />
        </mxCell>
        <mxCell id="mMB79SSLP8Va4VQIcZyh-51" style="edgeStyle=orthogonalEdgeStyle;rounded=0;orthogonalLoop=1;jettySize=auto;html=1;entryX=0.5;entryY=0;entryDx=0;entryDy=0;entryPerimeter=0;" parent="mMB79SSLP8Va4VQIcZyh-30" source="mMB79SSLP8Va4VQIcZyh-44" target="mMB79SSLP8Va4VQIcZyh-47" edge="1">
          <mxGeometry relative="1" as="geometry" />
        </mxCell>
        <mxCell id="0P3-xj6T6yvnwffC693Y-5" value="Да" style="edgeLabel;html=1;align=center;verticalAlign=middle;resizable=0;points=[];" vertex="1" connectable="0" parent="mMB79SSLP8Va4VQIcZyh-51">
          <mxGeometry x="-0.6354" y="2" relative="1" as="geometry">
            <mxPoint x="13" y="-19" as="offset" />
          </mxGeometry>
        </mxCell>
        <mxCell id="mMB79SSLP8Va4VQIcZyh-54" style="edgeStyle=orthogonalEdgeStyle;rounded=0;orthogonalLoop=1;jettySize=auto;html=1;entryX=0;entryY=0.5;entryDx=0;entryDy=0;entryPerimeter=0;exitX=1;exitY=0.5;exitDx=0;exitDy=0;exitPerimeter=0;" parent="mMB79SSLP8Va4VQIcZyh-30" source="mMB79SSLP8Va4VQIcZyh-44" target="0P3-xj6T6yvnwffC693Y-1" edge="1">
          <mxGeometry relative="1" as="geometry">
            <mxPoint x="860" y="143" as="targetPoint" />
            <mxPoint x="830" y="323" as="sourcePoint" />
          </mxGeometry>
        </mxCell>
        <mxCell id="0P3-xj6T6yvnwffC693Y-4" value="Нет" style="edgeLabel;html=1;align=center;verticalAlign=middle;resizable=0;points=[];" vertex="1" connectable="0" parent="mMB79SSLP8Va4VQIcZyh-54">
          <mxGeometry x="-0.8047" y="2" relative="1" as="geometry">
            <mxPoint x="-6" y="-8" as="offset" />
          </mxGeometry>
        </mxCell>
        <mxCell id="0P3-xj6T6yvnwffC693Y-13" style="edgeStyle=orthogonalEdgeStyle;rounded=0;orthogonalLoop=1;jettySize=auto;html=1;exitX=0;exitY=0.5;exitDx=0;exitDy=0;exitPerimeter=0;entryX=0.5;entryY=0;entryDx=0;entryDy=0;entryPerimeter=0;" edge="1" parent="mMB79SSLP8Va4VQIcZyh-30" source="0P3-xj6T6yvnwffC693Y-6" target="mMB79SSLP8Va4VQIcZyh-42">
          <mxGeometry relative="1" as="geometry" />
        </mxCell>
        <mxCell id="mMB79SSLP8Va4VQIcZyh-70" value="" style="dashed=1;dashPattern=8 4;endArrow=blockThin;endFill=0;startArrow=oval;startFill=0;endSize=6;startSize=4;html=1;rounded=0;entryX=0.5;entryY=0;entryDx=0;entryDy=0;entryPerimeter=0;" parent="1" target="mMB79SSLP8Va4VQIcZyh-35" edge="1">
          <mxGeometry width="160" relative="1" as="geometry">
            <mxPoint x="2085" y="250" as="sourcePoint" />
            <mxPoint x="2090" y="390" as="targetPoint" />
            <Array as="points" />
          </mxGeometry>
        </mxCell>
        <mxCell id="mMB79SSLP8Va4VQIcZyh-71" value="" style="dashed=1;dashPattern=8 4;endArrow=blockThin;endFill=0;startArrow=oval;startFill=0;endSize=6;startSize=4;html=1;rounded=0;entryX=0.75;entryY=0;entryDx=0;entryDy=0;entryPerimeter=0;" parent="1" target="0P3-xj6T6yvnwffC693Y-1" edge="1">
          <mxGeometry width="160" relative="1" as="geometry">
            <mxPoint x="2980" y="250" as="sourcePoint" />
            <mxPoint x="2980" y="360" as="targetPoint" />
            <Array as="points" />
          </mxGeometry>
        </mxCell>
        <mxCell id="mMB79SSLP8Va4VQIcZyh-72" value="" style="dashed=1;dashPattern=8 4;endArrow=blockThin;endFill=0;startArrow=oval;startFill=0;endSize=6;startSize=4;html=1;rounded=0;exitX=0.25;exitY=0;exitDx=0;exitDy=0;exitPerimeter=0;" parent="1" source="0P3-xj6T6yvnwffC693Y-1" edge="1">
          <mxGeometry width="160" relative="1" as="geometry">
            <mxPoint x="2920" y="360" as="sourcePoint" />
            <mxPoint x="2920" y="250" as="targetPoint" />
            <Array as="points" />
          </mxGeometry>
        </mxCell>
      </root>
    </mxGraphModel>
  </diagram>
</mxfile>
